<svg width="19" height="19" viewBox="0 0 19 19" fill="none" xmlns="http://www.w3.org/2000/svg">
<rect width="19" height="19" fill="#F5F5F5"/>
<g id="Eleccion Empresa">
<path d="M-311 -194C-311 -195.105 -310.105 -196 -309 -196H622C623.105 -196 624 -195.105 624 -194V984C624 985.105 623.105 986 622 986H-309C-310.105 986 -311 985.105 -311 984V-194Z" fill="#9D9D9D"/>
<g id="Inicio/Empresa">
<g id="pantalla vacia">
<g id="Contents">
<rect x="-45" y="-42" width="402" height="874" rx="44" fill="white"/>
</g>
</g>
<g id="menu asignaciones/back">
<rect id="Rectangle 161" x="-9.5" y="-10.5" width="40" height="40" rx="11.5" fill="white" stroke="#E8ECF4"/>
<g id="back_arrow">
<path id="Vector" d="M13.1573 2.3669C13.0654 2.27474 12.9562 2.20163 12.836 2.15174C12.7157 2.10185 12.5869 2.07617 12.4567 2.07617C12.3265 2.07617 12.1976 2.10185 12.0774 2.15174C11.9572 2.20163 11.848 2.27474 11.7561 2.3669L5.17732 8.94565C5.10393 9.01889 5.0457 9.10588 5.00598 9.20165C4.96625 9.29743 4.9458 9.40009 4.9458 9.50377C4.9458 9.60746 4.96625 9.71012 5.00598 9.80589C5.0457 9.90166 5.10393 9.98866 5.17732 10.0619L11.7561 16.6406C12.144 17.0286 12.7694 17.0286 13.1573 16.6406C13.5452 16.2527 13.5452 15.6273 13.1573 15.2394L7.42565 9.49982L13.1652 3.76023C13.5452 3.38023 13.5452 2.7469 13.1573 2.3669Z" fill="#1E232C" stroke="#1E232C" stroke-width="0.2"/>
</g>
</g>
</g>
</g>
</svg>
